<svg width="24" height="24" viewBox="0 0 24 24" fill="none" xmlns="http://www.w3.org/2000/svg">
<path d="M18.6752 15.3741H16.8606V13.6106C16.8606 13.442 16.7918 13.2808 16.6702 13.1624C16.5486 13.0441 16.3844 12.9781 16.2136 12.9781C16.0429 12.9781 15.8786 13.0441 15.7571 13.1624C15.6355 13.2808 15.5666 13.442 15.5666 13.6106V15.3741H13.7521C13.5813 15.3741 13.4171 15.4401 13.2955 15.5584C13.1739 15.6768 13.1051 15.838 13.1051 16.0066C13.1051 16.1752 13.1739 16.3364 13.2955 16.4547C13.4171 16.573 13.5813 16.639 13.7521 16.639H15.5666V18.4026C15.5666 18.5712 15.6355 18.7324 15.7571 18.8507C15.8786 18.969 16.0429 19.035 16.2136 19.035C16.3844 19.035 16.5486 18.969 16.6702 18.8507C16.7918 18.7324 16.8606 18.5712 16.8606 18.4026V16.639H18.6752C18.8459 16.639 19.0102 16.573 19.1317 16.4547C19.2533 16.3364 19.3222 16.1752 19.3222 16.0066C19.3222 15.838 19.2533 15.6768 19.1317 15.5584C19.0102 15.4401 18.8459 15.3741 18.6752 15.3741Z" fill="white" stroke="white" stroke-width="0.2"/>
<path d="M9.54143 11.8495C8.21251 12.3439 7.0614 13.2105 6.23502 14.3425C5.36919 15.5284 4.9026 16.947 4.9 18.4025V18.4027C4.9 18.8537 5.0841 19.2857 5.41089 19.6038C5.7376 19.9218 6.18013 20.1 6.64103 20.1H12.1111C12.2819 20.1 12.4461 20.034 12.5677 19.9157C12.6893 19.7973 12.7581 19.6362 12.7581 19.4676C12.7581 19.2989 12.6893 19.1378 12.5677 19.0194C12.4461 18.9011 12.2819 18.8351 12.1111 18.8351H6.64103C6.52161 18.8351 6.40762 18.7889 6.32398 18.7075C6.24044 18.6262 6.19402 18.5165 6.19402 18.4027C6.1959 16.8773 6.81923 15.4143 7.92821 14.3349C9.03729 13.2553 10.5416 12.6476 12.1112 12.6457C12.1112 12.6457 12.1112 12.6457 12.1112 12.6457L12.1111 12.5457L9.54143 11.8495ZM8.92906 8.28607C8.92908 7.67465 9.11534 7.07673 9.46463 6.5679C9.81396 6.05901 10.3108 5.66198 10.8925 5.42742C11.4743 5.19286 12.1146 5.13145 12.7324 5.25106C13.3502 5.37067 13.9173 5.66585 14.3621 6.09886C14.8069 6.53184 15.1096 7.08316 15.2321 7.68295C15.3547 8.28272 15.2918 8.90443 15.0513 9.46957C14.8108 10.0347 14.4033 10.5183 13.88 10.8586C13.3567 11.199 12.7411 11.3808 12.1112 11.3809C11.2667 11.38 10.4575 11.0531 9.86106 10.4726C9.26476 9.89214 8.9299 9.10573 8.92906 8.28607Z" fill="white" stroke="white" stroke-width="0.2"/>
</svg>
