<svg width="24" height="24" viewBox="0 0 24 24" fill="none" xmlns="http://www.w3.org/2000/svg">
<g clip-path="url(#clip0_3968_767)">
<rect width="24" height="24" rx="12" fill="#F6F6F6"/>
<path d="M14.5 27L7 19L18.5 5.5L25.8934 13.8792C26.0431 12.967 26.1008 13.2946 26 14L25.8934 13.8792C25.7955 14.4756 25.6581 15.6022 25.5 17.5C25.1 22.3 18.1667 26.8333 14.5 27Z" fill="url(#paint0_linear_3968_767)"/>
<path d="M5 7C5 5.89543 5.89543 5 7 5H17C18.1046 5 19 5.89543 19 7V9H5V7Z" fill="#E43434"/>
<path d="M12 5H17C18.1046 5 19 5.89543 19 7V9H12V5Z" fill="#CB1D1D"/>
<path d="M5 9H19V17C19 18.1046 18.1046 19 17 19H7C5.89543 19 5 18.1046 5 17V9Z" fill="#FFD9A0"/>
<path d="M12 9H19V17C19 18.1046 18.1046 19 17 19H12V9Z" fill="#F6CD8F"/>
<ellipse cx="8" cy="12" rx="1" ry="1" fill="white"/>
<circle cx="12" cy="12" r="1" fill="white"/>
<ellipse cx="12" cy="16" rx="1" ry="1" fill="white"/>
<ellipse cx="16" cy="12" rx="1" ry="1" fill="#F6F6F6"/>
<circle cx="16" cy="16" r="1" fill="#F6F6F6"/>
</g>
<defs>
<linearGradient id="paint0_linear_3968_767" x1="10.5" y1="11.5" x2="17" y2="21.5" gradientUnits="userSpaceOnUse">
<stop offset="0.125" stop-color="#D5D5D5"/>
<stop offset="1" stop-color="white" stop-opacity="0"/>
</linearGradient>
<clipPath id="clip0_3968_767">
<rect width="24" height="24" rx="12" fill="white"/>
</clipPath>
</defs>
</svg>
